<svg width="28" height="25" viewBox="0 0 28 25" fill="none" xmlns="http://www.w3.org/2000/svg">
<path d="M16.0951 23.3255L14.7077 24.5964C14.1203 25.1345 13.1704 25.1345 12.5892 24.5964L0.440576 13.4732C-0.146859 12.9351 -0.146859 12.0649 0.440576 11.5325L12.5892 0.403595C13.1767 -0.134532 14.1265 -0.134532 14.7077 0.403595L16.0951 1.67449C16.6888 2.21834 16.6763 3.10568 16.0701 3.63808L8.53967 10.2101H26.5002C27.3313 10.2101 28 10.8226 28 11.584V13.416C28 14.1774 27.3313 14.7899 26.5002 14.7899H8.53967L16.0701 21.3619C16.6825 21.8943 16.695 22.7817 16.0951 23.3255Z" fill="#060500"/>
</svg>
