<svg width="42" height="40" viewBox="0 0 42 40" fill="none" xmlns="http://www.w3.org/2000/svg">
<path d="M20.4432 10.4708L7.00055 23.8903V38.3738C7.00055 38.7488 7.12346 39.1085 7.34224 39.3736C7.56101 39.6388 7.85773 39.7878 8.16713 39.7878L16.3375 39.7621C16.6459 39.7603 16.9412 39.6105 17.1587 39.3455C17.3762 39.0805 17.4983 38.722 17.4983 38.3482V29.89C17.4983 29.515 17.6212 29.1553 17.84 28.8901C18.0587 28.625 18.3555 28.476 18.6649 28.476H23.3312C23.6406 28.476 23.9373 28.625 24.1561 28.8901C24.3748 29.1553 24.4977 29.515 24.4977 29.89V38.342C24.4973 38.528 24.5271 38.7124 24.5855 38.8845C24.6439 39.0565 24.7298 39.2129 24.8381 39.3447C24.9465 39.4764 25.0753 39.581 25.217 39.6523C25.3588 39.7237 25.5108 39.7604 25.6643 39.7604L33.8318 39.7878C34.1412 39.7878 34.4379 39.6388 34.6567 39.3736C34.8755 39.1085 34.9984 38.7488 34.9984 38.3738V23.8806L21.5587 10.4708C21.4007 10.3164 21.2039 10.2323 21.0009 10.2323C20.798 10.2323 20.6012 10.3164 20.4432 10.4708ZM41.677 19.5918L35.5817 13.502V1.26141C35.5817 0.980151 35.4895 0.710414 35.3254 0.511535C35.1613 0.312657 34.9388 0.200928 34.7067 0.200928H30.6237C30.3917 0.200928 30.1691 0.312657 30.0051 0.511535C29.841 0.710414 29.7488 0.980151 29.7488 1.26141V7.6782L23.2211 1.16862C22.5946 0.543798 21.8086 0.202177 20.9973 0.202177C20.186 0.202177 19.3999 0.543798 18.7735 1.16862L0.317527 19.5918C0.228931 19.6806 0.155631 19.7896 0.101817 19.9127C0.0480031 20.0358 0.0147286 20.1706 0.00389502 20.3093C-0.00693855 20.448 0.00488115 20.5879 0.0386787 20.7211C0.0724763 20.8542 0.127589 20.978 0.200869 21.0853L2.0601 23.8249C2.13318 23.9326 2.22307 24.0218 2.32462 24.0873C2.42617 24.1529 2.53739 24.1935 2.65191 24.2069C2.76644 24.2203 2.88201 24.2061 2.99202 24.1653C3.10203 24.1245 3.20432 24.0578 3.29303 23.9689L20.4432 6.84749C20.6012 6.69312 20.798 6.60894 21.0009 6.60894C21.2039 6.60894 21.4007 6.69312 21.5587 6.84749L38.7096 23.9689C38.7981 24.0578 38.9002 24.1246 39.0101 24.1655C39.12 24.2065 39.2354 24.2208 39.3498 24.2077C39.4643 24.1946 39.5754 24.1542 39.677 24.089C39.7786 24.0238 39.8685 23.9349 39.9418 23.8275L41.801 21.088C41.8742 20.98 41.9291 20.8556 41.9625 20.7219C41.9959 20.5881 42.0071 20.4477 41.9956 20.3087C41.9841 20.1696 41.95 20.0347 41.8954 19.9117C41.8407 19.7887 41.7665 19.68 41.677 19.5918Z" fill="#B8B8B8"/>
</svg>
