<svg width="40" height="40" viewBox="0 0 40 40" fill="none" xmlns="http://www.w3.org/2000/svg">
<path d="M22.3845 0C22.9754 0 23.4299 0.415661 23.4299 0.910496V7.28397C23.4299 10.9062 26.8614 13.8752 31.0202 13.895C32.7473 13.895 34.1108 13.9148 35.1562 13.9148L35.5434 13.9133C36.242 13.9087 37.1825 13.895 37.9969 13.895C38.565 13.895 39.0195 14.2908 39.0195 14.7857V30.6996C39.0195 35.6083 34.4517 39.5868 28.8158 39.5868H10.7264C4.81778 39.5868 0 35.4104 0 30.2641V8.92682C0 4.01806 4.59053 0 10.2492 0H22.3845ZM24.8161 25.5335H12.4535C11.5218 25.5335 10.7491 26.1867 10.7491 26.9982C10.7491 27.8097 11.5218 28.4827 12.4535 28.4827H24.8161C25.7479 28.4827 26.5205 27.8097 26.5205 26.9982C26.5205 26.1867 25.7479 25.5335 24.8161 25.5335ZM20.1347 15.6368H12.4535C11.5218 15.6368 10.7491 16.3098 10.7491 17.1213C10.7491 17.9328 11.5218 18.586 12.4535 18.586H20.1347C21.0664 18.586 21.8391 17.9328 21.8391 17.1213C21.8391 16.3098 21.0664 15.6368 20.1347 15.6368ZM26.7414 1.79328C26.7414 0.940186 27.93 0.516608 28.6095 1.13218C31.0661 3.35696 35.3589 7.24636 37.7587 9.41968C38.4223 10.0194 37.936 11.015 36.9792 11.017C35.1112 11.0229 32.9091 11.017 31.3251 11.0031C28.8117 11.0031 26.7414 9.19997 26.7414 7.01082V1.79328Z" fill="black" fill-opacity="0.28"/>
</svg>
